# xmcd
#
# Track frame offsets:
#	150
#	12962
#	26113
#	40905
#	52951
#	66930
#	80177
#	93306
#	106847
#	119553
#	132455
#	146485
#	164812
#	180604
#	201693
#	233013
#	256686
#	272125
#	297389
#	324000
#
# Disc length: 4566 seconds
#
# Revision: 0
# Processed by: cddbd v1.4PL0 Copyright (c) Steve Scherf et al.
# Submitted via: dBpowerAMP V4.0
#
DISCID=2b11d414
DTITLE=Stevie Wonder - The Definitive Collection [CD2)
DYEAR=2002
DGENRE=Pop
TTITLE0=For Once In My Life
TTITLE1=Uptight
TTITLE2=We Can Work It Out
TTITLE3=Signed, Sealed, Delivered I'm Yours
TTITLE4=Yester-Me, Yester-You, Yesterday
TTITLE5=I'm Wondering
TTITLE6=My Cherrie Amour
TTITLE7=You Are The Sunshine Of My Life
TTITLE8=I Don't Know Why (I Love You)
TTITLE9=A Place In The Sun
TTITLE10=Blowin' In The Wind
TTITLE11=Send One Your Love
TTITLE12=Pastime Paradise
TTITLE13=I Ain't Gonna Stand For It
TTITLE14=Fingertips (part 1&2)
TTITLE15=Boogie In Reggae Woman
TTITLE16=You Haven't Done Nothin'
TTITLE17=He's Misstra Know It All
TTITLE18=Happy Birthday
TTITLE19=Kiss Lonely Goodbye
EXTD=
EXTT0=
EXTT1=
EXTT2=
EXTT3=
EXTT4=
EXTT5=
EXTT6=
EXTT7=
EXTT8=
EXTT9=
EXTT10=
EXTT11=
EXTT12=
EXTT13=
EXTT14=
EXTT15=
EXTT16=
EXTT17=
EXTT18=
EXTT19=
PLAYORDER=
